<?xml version="1.0" standalone="no"?>
<!DOCTYPE svg PUBLIC "-//W3C//DTD SVG 20010904//EN"
 "http://www.w3.org/TR/2001/REC-SVG-20010904/DTD/svg10.dtd">
<svg version="1.0" xmlns="http://www.w3.org/2000/svg"
 width="116.000000pt" height="116.000000pt" viewBox="0 0 116.000000 116.000000"
 preserveAspectRatio="xMidYMid meet">
<metadata>
Created by potrace 1.11, written by Peter Selinger 2001-2013
</metadata>
<g transform="translate(0.000000,116.000000) scale(0.100000,-0.100000)"
fill="#000000" stroke="none">
<path d="M27 1027 c15 -17 42 -45 58 -63 17 -17 71 -75 120 -129 50 -54 99
-108 111 -120 37 -37 52 -67 114 -230 33 -88 64 -169 69 -180 5 -11 24 -58 42
-105 38 -100 45 -110 54 -79 3 13 19 58 35 99 15 41 58 159 95 261 37 102 76
197 88 211 17 19 206 219 335 354 11 12 -17 14 -190 13 l-203 0 -37 -49 c-23
-30 -32 -50 -25 -52 7 -2 58 -3 115 -3 l104 2 -131 -129 -130 -128 -20 -83
c-21 -87 -30 -125 -38 -170 -3 -15 -8 -29 -12 -32 -4 -2 -23 60 -42 138 l-34
141 -75 80 c-41 43 -88 93 -105 111 -16 17 -38 41 -48 52 l-19 21 106 -1 c58
-1 106 1 106 4 0 3 -16 27 -37 53 l-36 47 -199 -2 -200 -1 29 -31z"/>
<path d="M480 953 c0 -3 22 -36 48 -74 l49 -68 46 64 c26 36 47 69 47 74 0 5
-43 9 -95 9 -52 0 -95 -3 -95 -5z"/>
</g>
</svg>
